<svg width="98" height="33" viewBox="0 0 98 33" fill="none" xmlns="http://www.w3.org/2000/svg">
<g clip-path="url(#clip0_311_2769)">
<path d="M8.8 32.7999C6.8 32.7999 5.2 32.4999 3.9 31.7999C2.6 31.0999 1.6 30.1999 1 29.0999C0.4 27.9999 0 26.7999 0 25.4999C0 23.0999 0.9 21.1999 2.8 19.8999C4.7 18.5999 7.2 17.8999 10.4 17.8999H16.8V17.5999C16.8 15.4999 16.3 13.8999 15.2 12.8999C14.1 11.7999 12.7 11.2999 10.8 11.2999C9.2 11.2999 7.9 11.6999 6.7 12.4999C5.6 13.2999 4.9 14.3999 4.6 15.8999H0.5C0.7 14.1999 1.2 12.6999 2.3 11.4999C3.3 10.2999 4.6 9.3999 6.1 8.7999C7.6 8.1999 9.2 7.8999 10.9 7.8999C14.2 7.8999 16.7 8.7999 18.4 10.5999C20.1 12.3999 20.9 14.6999 20.9 17.6999V32.2999H17.3L17 27.8999C16.3 29.1999 15.3 30.3999 14 31.2999C12.7 32.1999 11 32.7999 8.8 32.7999ZM9.5 29.3999C11 29.3999 12.4 28.9999 13.5 28.1999C14.6 27.3999 15.4 26.3999 16 25.0999C16.6 23.7999 16.9 22.4999 16.9 21.0999H10.8C8.4 21.0999 6.8 21.4999 5.8 22.2999C4.8 23.0999 4.3 24.0999 4.3 25.2999C4.3 26.4999 4.8 27.4999 5.7 28.2999C6.5 28.9999 7.8 29.3999 9.5 29.3999Z" fill="#131313"/>
<path d="M33.0992 32.7999C30.2992 32.7999 27.8992 32.1 25.9992 30.6C24.0992 29.2 22.9992 27.2 22.6992 24.7H26.7992C27.0992 25.9 27.6992 27 28.7992 27.9C29.8992 28.8 31.2992 29.2999 33.0992 29.2999C34.7992 29.2999 35.9992 28.9 36.7992 28.2C37.5992 27.5 37.9992 26.6 37.9992 25.6C37.9992 24.2 37.4992 23.2 36.3992 22.7C35.3992 22.2 33.8992 21.8 31.9992 21.4C30.6992 21.1 29.3992 20.8 28.1992 20.3C26.8992 19.8 25.7992 19.1 24.9992 18.3C24.0992 17.4 23.6992 16.3 23.6992 14.8C23.6992 12.7 24.4992 11 25.9992 9.69995C27.5992 8.39995 29.6992 7.69995 32.2992 7.69995C34.7992 7.69995 36.8992 8.29995 38.4992 9.59995C40.0992 10.9 41.0992 12.7 41.2992 15H37.2992C37.0992 13.8 36.5992 12.8 35.6992 12.1C34.7992 11.4 33.5992 11.1 32.1992 11.1C30.7992 11.1 29.5992 11.4 28.8992 12C28.0992 12.6 27.6992 13.4 27.6992 14.4C27.6992 15.4 28.1992 16.1 29.1992 16.7C30.1992 17.2 31.5992 17.7 33.2992 18.1C34.7992 18.4 36.1992 18.8 37.4992 19.3C38.7992 19.8 39.8992 20.5 40.7992 21.4C41.5992 22.3 42.0992 23.6 42.0992 25.4C42.0992 27.5 41.2992 29.3 39.6992 30.7C38.1992 32.1 35.8992 32.7999 33.0992 32.7999Z" fill="#131313"/>
<path d="M55.7996 32.8C53.4996 32.8 51.4996 32.3 49.7996 31.2C47.9996 30.2 46.6996 28.7 45.5996 26.9C44.5996 25 44.0996 22.9 44.0996 20.3C44.0996 17.8 44.5996 15.6 45.5996 13.7C46.5996 11.8 47.9996 10.4 49.7996 9.3C51.5996 8.3 53.5996 7.7 55.9996 7.7C58.2996 7.7 60.2996 8.2 61.9996 9.3C63.6996 10.3 64.9996 11.7 65.8996 13.4C66.7996 15.1 67.1996 16.9 67.1996 18.9C67.1996 19.3 67.1996 19.6 67.1996 20C67.1996 20.4 67.1996 20.8 67.1996 21.2H48.1996C48.2996 23 48.6996 24.5 49.4996 25.7C50.2996 26.9 51.1996 27.8 52.2996 28.4C53.3996 29 54.5996 29.3 55.8996 29.3C57.5996 29.3 58.9996 28.9 60.0996 28.1C61.1996 27.3 61.9996 26.3 62.4996 25H66.4996C65.8996 27.2 64.5996 29 62.7996 30.5C60.9996 32.1 58.5996 32.8 55.7996 32.8ZM55.7996 11.2C53.8996 11.2 52.1996 11.8 50.6996 13C49.1996 14.2 48.3996 15.9 48.0996 18.1H63.0996C62.9996 16 62.2996 14.3 60.8996 13.1C59.4996 11.8 57.7996 11.2 55.7996 11.2ZM51.9996 4.8C51.2996 4.8 50.7996 4.6 50.2996 4.1C49.8996 3.6 49.5996 3.1 49.5996 2.4C49.5996 1.8 49.7996 1.2 50.2996 0.7C50.7996 0.2 51.2996 0 51.9996 0C52.6996 0 53.1996 0.2 53.6996 0.7C54.1996 1.2 54.3996 1.7 54.3996 2.4C54.3996 3.1 54.1996 3.6 53.6996 4.1C53.1996 4.6 52.6996 4.8 51.9996 4.8ZM59.6996 4.8C58.9996 4.8 58.4996 4.6 57.9996 4.1C57.4996 3.6 57.2996 3.1 57.2996 2.4C57.2996 1.8 57.4996 1.2 57.9996 0.7C58.4996 0.2 58.9996 0 59.6996 0C60.2996 0 60.8996 0.2 61.3996 0.7C61.8996 1.2 62.0996 1.7 62.0996 2.4C62.0996 3.1 61.8996 3.6 61.3996 4.1C60.8996 4.6 60.3996 4.8 59.6996 4.8Z" fill="#131313"/>
<path d="M77.4992 32.7999C75.4992 32.7999 73.8992 32.4999 72.5992 31.7999C71.2992 31.0999 70.2992 30.1999 69.6992 29.0999C69.0992 27.9999 68.6992 26.7999 68.6992 25.4999C68.6992 23.0999 69.5992 21.1999 71.4992 19.8999C73.3992 18.5999 75.8992 17.8999 79.0992 17.8999H85.4992V17.5999C85.4992 15.4999 84.9992 13.8999 83.8992 12.8999C82.7992 11.7999 81.3992 11.2999 79.4992 11.2999C77.8992 11.2999 76.5992 11.6999 75.3992 12.4999C74.2992 13.2999 73.5992 14.3999 73.2992 15.8999H69.1992C69.3992 14.1999 69.8992 12.6999 70.9992 11.4999C71.9992 10.2999 73.2992 9.3999 74.7992 8.7999C76.2992 8.1999 77.8992 7.8999 79.5992 7.8999C82.8992 7.8999 85.3992 8.7999 87.0992 10.5999C88.7992 12.3999 89.5992 14.6999 89.5992 17.6999V32.2999H85.9992L85.7992 27.9999C85.0992 29.2999 84.0992 30.4999 82.7992 31.3999C81.4992 32.2999 79.5992 32.7999 77.4992 32.7999ZM78.0992 29.3999C79.5992 29.3999 80.9992 28.9999 82.0992 28.1999C83.1992 27.3999 83.9992 26.3999 84.5992 25.0999C85.1992 23.7999 85.4992 22.4999 85.4992 21.0999H79.3992C76.9992 21.0999 75.3992 21.4999 74.3992 22.2999C73.3992 23.0999 72.8992 24.0999 72.8992 25.2999C72.8992 26.4999 73.3992 27.4999 74.2992 28.2999C75.0992 28.9999 76.3992 29.3999 78.0992 29.3999Z" fill="#131313"/>
<path d="M94 32C93.3793 32 92.8621 31.8983 92.4483 31.5932C92.0345 31.2881 91.6207 30.9831 91.4138 30.5763C91.2069 30.1695 91 29.661 91 29.0508C91 28.4407 91.1034 27.9322 91.4138 27.5254C91.6207 27.1186 92.0345 26.7119 92.4483 26.4068C92.8621 26.1017 93.3793 26 94 26C94.6207 26 95.1379 26.1017 95.5517 26.4068C95.9655 26.7119 96.3793 27.0169 96.5862 27.5254C96.7931 27.9322 97 28.4407 97 29.0508C97 29.661 96.8966 30.1695 96.5862 30.5763C96.3793 30.9831 95.9655 31.3898 95.5517 31.5932C95.0345 31.8983 94.5172 32 94 32ZM94 31.4915C94.7241 31.4915 95.3448 31.2881 95.7586 30.7797C96.1724 30.2712 96.3793 29.7627 96.3793 29.0508C96.3793 28.339 96.1724 27.7288 95.7586 27.322C95.3448 26.8136 94.7241 26.6102 94 26.6102C93.2759 26.6102 92.6552 26.8136 92.2414 27.322C91.8276 27.8305 91.6207 28.339 91.6207 29.0508C91.6207 29.7627 91.8276 30.3729 92.2414 30.7797C92.6552 31.2881 93.1724 31.4915 94 31.4915ZM92.7586 30.5763V27.4237H94.2069C94.5172 27.4237 94.8276 27.5254 95.0345 27.7288C95.2414 27.9322 95.3448 28.1356 95.3448 28.4407C95.3448 28.6441 95.2414 28.8475 95.1379 29.0508C95.0345 29.2542 94.8276 29.3559 94.6207 29.3559L95.4483 30.5763H94.6207L93.7931 29.3559H93.4828V30.5763H92.7586ZM93.4828 28.8475H94.1035C94.2069 28.8475 94.3103 28.8475 94.4138 28.7458C94.5172 28.6441 94.5172 28.5424 94.5172 28.4407C94.5172 28.339 94.5172 28.2373 94.4138 28.1356C94.3103 28.0339 94.2069 28.0339 94.1035 28.0339H93.4828V28.8475Z" fill="#131313"/>
</g>
<defs>
<clipPath id="clip0_311_2769">
<rect width="97.1" height="32.8" fill="white"/>
</clipPath>
</defs>
</svg>
