<?xml version="1.0" encoding="utf-8"?>
<!-- Generator: Adobe Illustrator 22.0.0, SVG Export Plug-In . SVG Version: 6.00 Build 0)  -->
<svg version="1.1" id="Cannify-Logo" xmlns="http://www.w3.org/2000/svg" xmlns:xlink="http://www.w3.org/1999/xlink" x="0px"
	 y="0px" viewBox="0 0 662.8 187.9" style="enable-background:new 0 0 662.8 187.9;" xml:space="preserve">
<style type="text/css">
	.st0{fill:#010101;}
</style>
<g id="logo">
	<g id="logo-letter">
		<path class="st0" d="M562.4,187.9l24.6-53.6h-5.8l-39.4-89.6H560l32.8,77.2l34.8-77.2H645l-65,143.1H562.4z"/>
		<path class="st0" d="M66.8,146.3c-13.7,0-25.6-3-35.5-9.1c-9.9-6.1-17.6-14.5-23.1-25.4C2.7,101,0,88.4,0,74
			c0-14.3,2.7-26.8,8.2-37.7c5.5-10.9,13.2-19.4,23.1-25.5C41.2,4.7,53,1.6,66.8,1.6c16,0,29,3.8,39.1,11.5
			c10.1,7.7,16.5,18.4,19.3,32.1h-18.6c-2.1-8.7-6.5-15.6-13.1-20.9C86.9,19,78,16.4,66.8,16.4c-10,0-18.7,2.3-26.2,6.9
			c-7.5,4.6-13.2,11.2-17.3,19.8C19.2,51.7,17.2,62,17.2,74c0,12,2,22.3,6.1,30.9c4.1,8.6,9.8,15.2,17.3,19.8
			c7.5,4.6,16.2,6.9,26.2,6.9c11.2,0,20.1-2.6,26.7-7.7c6.6-5.1,11-12,13.1-20.5h18.6c-2.8,13.5-9.2,24-19.3,31.6
			C95.8,142.5,82.8,146.3,66.8,146.3z"/>
		<path class="st0" d="M173.3,146.3c-8.3,0-15.1-1.4-20.6-4.2c-5.5-2.8-9.5-6.5-12.2-11.2c-2.7-4.7-4-9.7-4-15.2
			c0-10.1,3.9-17.9,11.6-23.4c7.7-5.5,18.3-8.2,31.6-8.2h26.8V83c0-8.7-2.3-15.2-6.8-19.7c-4.5-4.5-10.6-6.7-18.2-6.7
			c-6.5,0-12.2,1.6-16.9,4.9c-4.7,3.3-7.7,8-8.9,14.3h-17.2c0.7-7.2,3.1-13.3,7.3-18.2c4.2-4.9,9.4-8.7,15.7-11.3
			c6.3-2.6,12.9-3.9,20-3.9c13.9,0,24.3,3.7,31.3,11.1c7,7.4,10.5,17.2,10.5,29.5v61h-15l-1-17.8c-2.8,5.6-6.9,10.4-12.3,14.3
			C189.6,144.4,182.4,146.3,173.3,146.3z M175.9,132.1c6.4,0,11.9-1.7,16.5-5c4.6-3.3,8.1-7.7,10.5-13c2.4-5.3,3.6-10.9,3.6-16.8
			v-0.2h-25.4c-9.9,0-16.8,1.7-20.9,5.1c-4.1,3.4-6.1,7.6-6.1,12.7c0,5.2,1.9,9.4,5.7,12.5C163.6,130.6,169,132.1,175.9,132.1z"/>
		<path class="st0" d="M240.5,143.9V44.8h15.2l1,17.8c3.2-6.3,7.8-11.2,13.8-14.8c6-3.6,12.8-5.4,20.4-5.4
			c11.7,0,21.1,3.6,28.1,10.7c7,7.1,10.5,18.1,10.5,32.9v58h-16.8V87.8c0-20.7-8.5-31-25.6-31c-8.5,0-15.6,3.1-21.3,9.3
			c-5.7,6.2-8.5,15-8.5,26.5v51.4H240.5z"/>
		<path class="st0" d="M346.9,143.9V44.8h15.2l1,17.8c3.2-6.3,7.8-11.2,13.8-14.8c6-3.6,12.8-5.4,20.4-5.4
			c11.7,0,21.1,3.6,28.1,10.7c7,7.1,10.5,18.1,10.5,32.9v58H419V87.8c0-20.7-8.5-31-25.6-31c-8.5,0-15.6,3.1-21.3,9.3
			c-5.7,6.2-8.5,15-8.5,26.5v51.4H346.9z"/>
		<path class="st0" d="M463.4,22.8c-3.3,0-6.1-1.1-8.3-3.3c-2.2-2.2-3.3-5-3.3-8.3c0-3.2,1.1-5.9,3.3-8c2.2-2.1,5-3.2,8.3-3.2
			c3.2,0,5.9,1.1,8.2,3.2c2.3,2.1,3.4,4.8,3.4,8c0,3.3-1.1,6.1-3.4,8.3C469.3,21.7,466.6,22.8,463.4,22.8z M455,143.9V44.8h16.8
			v99.2H455z"/>
		<path class="st0" d="M498.3,143.9V59h-15V44.8h15V27.6c0-9.6,2.4-16.6,7.2-21c4.8-4.4,11.8-6.6,21-6.6h10v14.4h-7.4
			c-5.1,0-8.7,1-10.8,3.1c-2.1,2.1-3.2,5.6-3.2,10.5v16.8h24.4V59h-24.4v85H498.3z"/>
	</g>
	<path id="logo-trademark" class="st0" d="M645.1,143.9c-3.5,0-6.6-0.8-9.3-2.3c-2.7-1.5-4.8-3.7-6.3-6.4c-1.5-2.7-2.3-5.8-2.3-9.3
		c0-3.5,0.8-6.6,2.3-9.3c1.5-2.7,3.6-4.9,6.3-6.5c2.7-1.6,5.8-2.4,9.3-2.4c3.5,0,6.5,0.8,9.2,2.4c2.7,1.6,4.8,3.7,6.3,6.5
		c1.5,2.7,2.3,5.8,2.3,9.3c0,3.5-0.8,6.6-2.3,9.3c-1.5,2.7-3.6,4.9-6.3,6.4C651.6,143.2,648.5,143.9,645.1,143.9z M645.1,140.7
		c4.3,0,7.7-1.4,10.4-4.2c2.6-2.8,3.9-6.3,3.9-10.7c0-4.4-1.3-7.9-3.9-10.7c-2.6-2.8-6.1-4.2-10.4-4.2c-4.4,0-7.9,1.4-10.5,4.2
		c-2.6,2.8-3.9,6.3-3.9,10.7c0,4.4,1.3,7.9,3.9,10.7C637.1,139.3,640.6,140.7,645.1,140.7z M637.7,135.5V116h8.4
		c2,0,3.6,0.5,4.7,1.5c1.1,1,1.7,2.5,1.7,4.3c0,1.4-0.4,2.6-1.2,3.6c-0.8,1-1.9,1.6-3.2,2l5.1,7.5l-4.9,0.1l-4.6-7.4h-1.8v7.9H637.7
		z M641.9,124.4h4c0.8,0,1.4-0.2,2-0.5c0.5-0.4,0.8-1,0.8-1.8c0-0.8-0.3-1.4-0.8-1.7c-0.5-0.4-1.2-0.5-2-0.5h-4V124.4z"/>
</g>
</svg>
