<?xml version="1.0" encoding="utf-8"?>
<!-- Generator: Adobe Illustrator 22.0.0, SVG Export Plug-In . SVG Version: 6.00 Build 0)  -->
<svg version="1.1" id="Layer_1" xmlns="http://www.w3.org/2000/svg" xmlns:xlink="http://www.w3.org/1999/xlink" x="0px" y="0px"
	 viewBox="0 0 200 240" style="enable-background:new 0 0 200 240;" xml:space="preserve">
<style type="text/css">
	.st0{fill:#FFFFFF;}
</style>
<g>
	<path class="st0" d="M177.5,28.1c2.2,1.3,4.8,1.9,7.7,1.9c2.9,0,5.4-0.6,7.6-1.9c2.2-1.3,4-3.1,5.2-5.3c1.3-2.3,1.9-4.8,1.9-7.7
		c0-2.9-0.6-5.4-1.9-7.7c-1.3-2.3-3-4.1-5.2-5.4c-2.2-1.3-4.8-2-7.6-2c-2.9,0-5.5,0.7-7.7,2c-2.2,1.3-4,3.1-5.3,5.4
		c-1.3,2.3-1.9,4.8-1.9,7.7c0,2.9,0.6,5.4,1.9,7.7C173.5,25,175.3,26.8,177.5,28.1z M176.5,6.2c2.2-2.3,5.1-3.4,8.7-3.4
		c3.6,0,6.4,1.1,8.6,3.4c2.2,2.3,3.3,5.3,3.3,8.9c0,3.6-1.1,6.6-3.3,8.9c-2.2,2.3-5,3.4-8.6,3.4c-3.7,0-6.6-1.1-8.7-3.4
		c-2.2-2.3-3.3-5.3-3.3-8.9C173.2,11.4,174.3,8.5,176.5,6.2z"/>
	<path class="st0" d="M182.6,16.5h1.5l3.8,6.2l4.1-0.1l-4.2-6.2c1.1-0.3,2-0.8,2.7-1.6c0.7-0.8,1-1.8,1-3c0-1.5-0.5-2.7-1.4-3.6
		c-1-0.9-2.3-1.3-3.9-1.3h-7V23h3.5V16.5z M182.6,9.9h3.3c0.7,0,1.2,0.2,1.6,0.5c0.4,0.3,0.6,0.8,0.6,1.4c0,0.7-0.2,1.2-0.6,1.5
		c-0.4,0.3-1,0.5-1.6,0.5h-3.3V9.9z"/>
	<polygon class="st0" points="182,72 167.9,57.9 110,115.8 110,0 90,0 90,115.8 32.1,57.9 18,72 75.9,130 0,130 0,150 200,150 
		200,130 124.1,130 	"/>
	<path class="st0" d="M33.3,196.7c18.4,0,33.3-14.9,33.3-33.3H0C0,181.7,14.9,196.7,33.3,196.7z"/>
	<path class="st0" d="M100,196.7c18.4,0,33.3-14.9,33.3-33.3H66.7C66.7,181.7,81.6,196.7,100,196.7z"/>
	<path class="st0" d="M166.7,196.7c18.4,0,33.3-14.9,33.3-33.3h-66.7C133.3,181.7,148.3,196.7,166.7,196.7z"/>
	<path class="st0" d="M100,240c18.4,0,33.3-14.9,33.3-33.3H66.7C66.7,225.1,81.6,240,100,240z"/>
</g>
</svg>
