<?xml version="1.0" encoding="utf-8"?>
<!-- Generator: Adobe Illustrator 22.0.0, SVG Export Plug-In . SVG Version: 6.00 Build 0)  -->
<svg version="1.1" id="Layer_1" xmlns="http://www.w3.org/2000/svg" xmlns:xlink="http://www.w3.org/1999/xlink" x="0px" y="0px"
	 viewBox="0 0 326 23.7" style="enable-background:new 0 0 326 23.7;" xml:space="preserve">
<style type="text/css">
	.st0{opacity:0.8;}
	.st1{fill:#274840;}
	.st2{opacity:0.65;}
	.st3{opacity:0.5;}
	.st4{opacity:0.35;}
	.st5{opacity:0.2;}
	.st6{opacity:0.1;}
	.st7{opacity:5.000000e-02;}
</style>
<g>
	<g class="st0">
		<path class="st1" d="M0,3c0,1.6,1.3,3,3,3s3-1.3,3-3H0z"/>
		<path class="st1" d="M5.9,3c0,1.6,1.3,3,3,3s3-1.3,3-3H5.9z"/>
		<path class="st1" d="M11.9,3c0,1.6,1.3,3,3,3s3-1.3,3-3H11.9z"/>
		<path class="st1" d="M17.8,3c0,1.6,1.3,3,3,3c1.6,0,3-1.3,3-3H17.8z"/>
		<path class="st1" d="M23.7,3c0,1.6,1.3,3,3,3c1.6,0,3-1.3,3-3H23.7z"/>
		<path class="st1" d="M29.6,3c0,1.6,1.3,3,3,3c1.6,0,3-1.3,3-3H29.6z"/>
		<path class="st1" d="M35.6,3c0,1.6,1.3,3,3,3c1.6,0,3-1.3,3-3H35.6z"/>
		<path class="st1" d="M41.5,3c0,1.6,1.3,3,3,3c1.6,0,3-1.3,3-3H41.5z"/>
		<path class="st1" d="M47.4,3c0,1.6,1.3,3,3,3s3-1.3,3-3H47.4z"/>
		<path class="st1" d="M53.3,3c0,1.6,1.3,3,3,3s3-1.3,3-3H53.3z"/>
		<path class="st1" d="M59.3,3c0,1.6,1.3,3,3,3s3-1.3,3-3H59.3z"/>
		<path class="st1" d="M65.2,3c0,1.6,1.3,3,3,3c1.6,0,3-1.3,3-3H65.2z"/>
		<path class="st1" d="M71.1,3c0,1.6,1.3,3,3,3c1.6,0,3-1.3,3-3H71.1z"/>
		<path class="st1" d="M77.1,3c0,1.6,1.3,3,3,3c1.6,0,3-1.3,3-3H77.1z"/>
		<path class="st1" d="M83,3c0,1.6,1.3,3,3,3c1.6,0,3-1.3,3-3H83z"/>
		<path class="st1" d="M88.9,3c0,1.6,1.3,3,3,3c1.6,0,3-1.3,3-3H88.9z"/>
		<path class="st1" d="M94.8,3c0,1.6,1.3,3,3,3c1.6,0,3-1.3,3-3H94.8z"/>
		<path class="st1" d="M100.8,3c0,1.6,1.3,3,3,3c1.6,0,3-1.3,3-3H100.8z"/>
		<path class="st1" d="M106.7,3c0,1.6,1.3,3,3,3c1.6,0,3-1.3,3-3H106.7z"/>
		<path class="st1" d="M112.6,3c0,1.6,1.3,3,3,3c1.6,0,3-1.3,3-3H112.6z"/>
		<g>
			<path class="st1" d="M118.5,3c0,1.6,1.3,3,3,3c1.6,0,3-1.3,3-3H118.5z"/>
		</g>
		<path class="st1" d="M124.5,3c0,1.6,1.3,3,3,3c1.6,0,3-1.3,3-3H124.5z"/>
		<path class="st1" d="M130.4,3c0,1.6,1.3,3,3,3s3-1.3,3-3H130.4z"/>
		<path class="st1" d="M136.3,3c0,1.6,1.3,3,3,3s3-1.3,3-3H136.3z"/>
		<path class="st1" d="M142.2,3c0,1.6,1.3,3,3,3s3-1.3,3-3H142.2z"/>
		<path class="st1" d="M148.2,3c0,1.6,1.3,3,3,3s3-1.3,3-3H148.2z"/>
		<path class="st1" d="M154.1,3c0,1.6,1.3,3,3,3s3-1.3,3-3H154.1z"/>
		<path class="st1" d="M160,3c0,1.6,1.3,3,3,3s3-1.3,3-3H160z"/>
		<path class="st1" d="M166,3c0,1.6,1.3,3,3,3s3-1.3,3-3H166z"/>
		<path class="st1" d="M171.9,3c0,1.6,1.3,3,3,3s3-1.3,3-3H171.9z"/>
		<path class="st1" d="M177.8,3c0,1.6,1.3,3,3,3s3-1.3,3-3H177.8z"/>
		<path class="st1" d="M183.7,3c0,1.6,1.3,3,3,3s3-1.3,3-3H183.7z"/>
		<path class="st1" d="M189.7,3c0,1.6,1.3,3,3,3s3-1.3,3-3H189.7z"/>
		<path class="st1" d="M195.6,3c0,1.6,1.3,3,3,3s3-1.3,3-3H195.6z"/>
		<path class="st1" d="M201.5,3c0,1.6,1.3,3,3,3s3-1.3,3-3H201.5z"/>
		<path class="st1" d="M207.4,3c0,1.6,1.3,3,3,3s3-1.3,3-3H207.4z"/>
		<path class="st1" d="M213.4,3c0,1.6,1.3,3,3,3s3-1.3,3-3H213.4z"/>
		<path class="st1" d="M219.3,3c0,1.6,1.3,3,3,3c1.6,0,3-1.3,3-3H219.3z"/>
		<path class="st1" d="M225.2,3c0,1.6,1.3,3,3,3c1.6,0,3-1.3,3-3H225.2z"/>
		<path class="st1" d="M231.2,3c0,1.6,1.3,3,3,3c1.6,0,3-1.3,3-3H231.2z"/>
		<path class="st1" d="M237.1,3c0,1.6,1.3,3,3,3c1.6,0,3-1.3,3-3H237.1z"/>
		<path class="st1" d="M243,3c0,1.6,1.3,3,3,3c1.6,0,3-1.3,3-3H243z"/>
		<g>
			<path class="st1" d="M248.9,3c0,1.6,1.3,3,3,3c1.6,0,3-1.3,3-3H248.9z"/>
		</g>
		<path class="st1" d="M254.9,3c0,1.6,1.3,3,3,3s3-1.3,3-3H254.9z"/>
		<path class="st1" d="M260.8,3c0,1.6,1.3,3,3,3s3-1.3,3-3H260.8z"/>
		<path class="st1" d="M266.7,3c0,1.6,1.3,3,3,3s3-1.3,3-3H266.7z"/>
		<path class="st1" d="M272.6,3c0,1.6,1.3,3,3,3s3-1.3,3-3H272.6z"/>
		<path class="st1" d="M278.6,3c0,1.6,1.3,3,3,3s3-1.3,3-3H278.6z"/>
		<path class="st1" d="M284.5,3c0,1.6,1.3,3,3,3s3-1.3,3-3H284.5z"/>
		<path class="st1" d="M290.4,3c0,1.6,1.3,3,3,3s3-1.3,3-3H290.4z"/>
		<path class="st1" d="M296.3,3c0,1.6,1.3,3,3,3s3-1.3,3-3H296.3z"/>
		<path class="st1" d="M302.3,3c0,1.6,1.3,3,3,3s3-1.3,3-3H302.3z"/>
		<path class="st1" d="M308.2,3c0,1.6,1.3,3,3,3s3-1.3,3-3H308.2z"/>
		<path class="st1" d="M314.1,3c0,1.6,1.3,3,3,3s3-1.3,3-3H314.1z"/>
		<path class="st1" d="M320.1,3c0,1.6,1.3,3,3,3s3-1.3,3-3H320.1z"/>
	</g>
	<g>
		<path class="st1" d="M0,0c0,1.6,1.3,3,3,3s3-1.3,3-3H0z"/>
		<path class="st1" d="M5.9,0c0,1.6,1.3,3,3,3s3-1.3,3-3H5.9z"/>
		<path class="st1" d="M11.9,0c0,1.6,1.3,3,3,3s3-1.3,3-3H11.9z"/>
		<path class="st1" d="M17.8,0c0,1.6,1.3,3,3,3c1.6,0,3-1.3,3-3H17.8z"/>
		<path class="st1" d="M23.7,0c0,1.6,1.3,3,3,3c1.6,0,3-1.3,3-3H23.7z"/>
		<path class="st1" d="M29.6,0c0,1.6,1.3,3,3,3c1.6,0,3-1.3,3-3H29.6z"/>
		<path class="st1" d="M35.6,0c0,1.6,1.3,3,3,3c1.6,0,3-1.3,3-3H35.6z"/>
		<path class="st1" d="M41.5,0c0,1.6,1.3,3,3,3c1.6,0,3-1.3,3-3H41.5z"/>
		<path class="st1" d="M47.4,0c0,1.6,1.3,3,3,3s3-1.3,3-3H47.4z"/>
		<path class="st1" d="M53.3,0c0,1.6,1.3,3,3,3s3-1.3,3-3H53.3z"/>
		<path class="st1" d="M59.3,0c0,1.6,1.3,3,3,3s3-1.3,3-3H59.3z"/>
		<path class="st1" d="M65.2,0c0,1.6,1.3,3,3,3c1.6,0,3-1.3,3-3H65.2z"/>
		<path class="st1" d="M71.1,0c0,1.6,1.3,3,3,3c1.6,0,3-1.3,3-3H71.1z"/>
		<path class="st1" d="M77.1,0c0,1.6,1.3,3,3,3c1.6,0,3-1.3,3-3H77.1z"/>
		<path class="st1" d="M83,0c0,1.6,1.3,3,3,3c1.6,0,3-1.3,3-3H83z"/>
		<path class="st1" d="M88.9,0c0,1.6,1.3,3,3,3c1.6,0,3-1.3,3-3H88.9z"/>
		<path class="st1" d="M94.8,0c0,1.6,1.3,3,3,3c1.6,0,3-1.3,3-3H94.8z"/>
		<path class="st1" d="M100.8,0c0,1.6,1.3,3,3,3c1.6,0,3-1.3,3-3H100.8z"/>
		<path class="st1" d="M106.7,0c0,1.6,1.3,3,3,3c1.6,0,3-1.3,3-3H106.7z"/>
		<path class="st1" d="M112.6,0c0,1.6,1.3,3,3,3c1.6,0,3-1.3,3-3H112.6z"/>
		<g>
			<path class="st1" d="M118.5,0c0,1.6,1.3,3,3,3c1.6,0,3-1.3,3-3H118.5z"/>
		</g>
		<path class="st1" d="M124.5,0c0,1.6,1.3,3,3,3c1.6,0,3-1.3,3-3H124.5z"/>
		<path class="st1" d="M130.4,0c0,1.6,1.3,3,3,3s3-1.3,3-3H130.4z"/>
		<path class="st1" d="M136.3,0c0,1.6,1.3,3,3,3s3-1.3,3-3H136.3z"/>
		<path class="st1" d="M142.2,0c0,1.6,1.3,3,3,3s3-1.3,3-3H142.2z"/>
		<path class="st1" d="M148.2,0c0,1.6,1.3,3,3,3s3-1.3,3-3H148.2z"/>
		<path class="st1" d="M154.1,0c0,1.6,1.3,3,3,3s3-1.3,3-3H154.1z"/>
		<path class="st1" d="M160,0c0,1.6,1.3,3,3,3s3-1.3,3-3H160z"/>
		<path class="st1" d="M166,0c0,1.6,1.3,3,3,3s3-1.3,3-3H166z"/>
		<path class="st1" d="M171.9,0c0,1.6,1.3,3,3,3s3-1.3,3-3H171.9z"/>
		<path class="st1" d="M177.8,0c0,1.6,1.3,3,3,3s3-1.3,3-3H177.8z"/>
		<path class="st1" d="M183.7,0c0,1.6,1.3,3,3,3s3-1.3,3-3H183.7z"/>
		<path class="st1" d="M189.7,0c0,1.6,1.3,3,3,3s3-1.3,3-3H189.7z"/>
		<path class="st1" d="M195.6,0c0,1.6,1.3,3,3,3s3-1.3,3-3H195.6z"/>
		<path class="st1" d="M201.5,0c0,1.6,1.3,3,3,3s3-1.3,3-3H201.5z"/>
		<path class="st1" d="M207.4,0c0,1.6,1.3,3,3,3s3-1.3,3-3H207.4z"/>
		<path class="st1" d="M213.4,0c0,1.6,1.3,3,3,3s3-1.3,3-3H213.4z"/>
		<path class="st1" d="M219.3,0c0,1.6,1.3,3,3,3c1.6,0,3-1.3,3-3H219.3z"/>
		<path class="st1" d="M225.2,0c0,1.6,1.3,3,3,3c1.6,0,3-1.3,3-3H225.2z"/>
		<path class="st1" d="M231.2,0c0,1.6,1.3,3,3,3c1.6,0,3-1.3,3-3H231.2z"/>
		<path class="st1" d="M237.1,0c0,1.6,1.3,3,3,3c1.6,0,3-1.3,3-3H237.1z"/>
		<path class="st1" d="M243,0c0,1.6,1.3,3,3,3c1.6,0,3-1.3,3-3H243z"/>
		<g>
			<path class="st1" d="M248.9,0c0,1.6,1.3,3,3,3c1.6,0,3-1.3,3-3H248.9z"/>
		</g>
		<path class="st1" d="M254.9,0c0,1.6,1.3,3,3,3s3-1.3,3-3H254.9z"/>
		<path class="st1" d="M260.8,0c0,1.6,1.3,3,3,3s3-1.3,3-3H260.8z"/>
		<path class="st1" d="M266.7,0c0,1.6,1.3,3,3,3s3-1.3,3-3H266.7z"/>
		<path class="st1" d="M272.6,0c0,1.6,1.3,3,3,3s3-1.3,3-3H272.6z"/>
		<path class="st1" d="M278.6,0c0,1.6,1.3,3,3,3s3-1.3,3-3H278.6z"/>
		<path class="st1" d="M284.5,0c0,1.6,1.3,3,3,3s3-1.3,3-3H284.5z"/>
		<path class="st1" d="M290.4,0c0,1.6,1.3,3,3,3s3-1.3,3-3H290.4z"/>
		<path class="st1" d="M296.3,0c0,1.6,1.3,3,3,3s3-1.3,3-3H296.3z"/>
		<path class="st1" d="M302.3,0c0,1.6,1.3,3,3,3s3-1.3,3-3H302.3z"/>
		<path class="st1" d="M308.2,0c0,1.6,1.3,3,3,3s3-1.3,3-3H308.2z"/>
		<path class="st1" d="M314.1,0c0,1.6,1.3,3,3,3s3-1.3,3-3H314.1z"/>
		<path class="st1" d="M320.1,0c0,1.6,1.3,3,3,3s3-1.3,3-3H320.1z"/>
	</g>
	<g class="st2">
		<path class="st1" d="M0,5.9c0,1.6,1.3,3,3,3s3-1.3,3-3H0z"/>
		<path class="st1" d="M5.9,5.9c0,1.6,1.3,3,3,3s3-1.3,3-3H5.9z"/>
		<path class="st1" d="M11.9,5.9c0,1.6,1.3,3,3,3s3-1.3,3-3H11.9z"/>
		<path class="st1" d="M17.8,5.9c0,1.6,1.3,3,3,3c1.6,0,3-1.3,3-3H17.8z"/>
		<path class="st1" d="M23.7,5.9c0,1.6,1.3,3,3,3c1.6,0,3-1.3,3-3H23.7z"/>
		<path class="st1" d="M29.6,5.9c0,1.6,1.3,3,3,3c1.6,0,3-1.3,3-3H29.6z"/>
		<path class="st1" d="M35.6,5.9c0,1.6,1.3,3,3,3c1.6,0,3-1.3,3-3H35.6z"/>
		<path class="st1" d="M41.5,5.9c0,1.6,1.3,3,3,3c1.6,0,3-1.3,3-3H41.5z"/>
		<path class="st1" d="M47.4,5.9c0,1.6,1.3,3,3,3s3-1.3,3-3H47.4z"/>
		<path class="st1" d="M53.3,5.9c0,1.6,1.3,3,3,3s3-1.3,3-3H53.3z"/>
		<path class="st1" d="M59.3,5.9c0,1.6,1.3,3,3,3s3-1.3,3-3H59.3z"/>
		<path class="st1" d="M65.2,5.9c0,1.6,1.3,3,3,3c1.6,0,3-1.3,3-3H65.2z"/>
		<path class="st1" d="M71.1,5.9c0,1.6,1.3,3,3,3c1.6,0,3-1.3,3-3H71.1z"/>
		<path class="st1" d="M77.1,5.9c0,1.6,1.3,3,3,3c1.6,0,3-1.3,3-3H77.1z"/>
		<path class="st1" d="M83,5.9c0,1.6,1.3,3,3,3c1.6,0,3-1.3,3-3H83z"/>
		<path class="st1" d="M88.9,5.9c0,1.6,1.3,3,3,3c1.6,0,3-1.3,3-3H88.9z"/>
		<path class="st1" d="M94.8,5.9c0,1.6,1.3,3,3,3c1.6,0,3-1.3,3-3H94.8z"/>
		<path class="st1" d="M100.8,5.9c0,1.6,1.3,3,3,3c1.6,0,3-1.3,3-3H100.8z"/>
		<path class="st1" d="M106.7,5.9c0,1.6,1.3,3,3,3c1.6,0,3-1.3,3-3H106.7z"/>
		<path class="st1" d="M112.6,5.9c0,1.6,1.3,3,3,3c1.6,0,3-1.3,3-3H112.6z"/>
		<g>
			<path class="st1" d="M118.5,5.9c0,1.6,1.3,3,3,3c1.6,0,3-1.3,3-3H118.5z"/>
		</g>
		<path class="st1" d="M124.5,5.9c0,1.6,1.3,3,3,3c1.6,0,3-1.3,3-3H124.5z"/>
		<path class="st1" d="M130.4,5.9c0,1.6,1.3,3,3,3s3-1.3,3-3H130.4z"/>
		<path class="st1" d="M136.3,5.9c0,1.6,1.3,3,3,3s3-1.3,3-3H136.3z"/>
		<path class="st1" d="M142.2,5.9c0,1.6,1.3,3,3,3s3-1.3,3-3H142.2z"/>
		<path class="st1" d="M148.2,5.9c0,1.6,1.3,3,3,3s3-1.3,3-3H148.2z"/>
		<path class="st1" d="M154.1,5.9c0,1.6,1.3,3,3,3s3-1.3,3-3H154.1z"/>
		<path class="st1" d="M160,5.9c0,1.6,1.3,3,3,3s3-1.3,3-3H160z"/>
		<path class="st1" d="M166,5.9c0,1.6,1.3,3,3,3s3-1.3,3-3H166z"/>
		<path class="st1" d="M171.9,5.9c0,1.6,1.3,3,3,3s3-1.3,3-3H171.9z"/>
		<path class="st1" d="M177.8,5.9c0,1.6,1.3,3,3,3s3-1.3,3-3H177.8z"/>
		<path class="st1" d="M183.7,5.9c0,1.6,1.3,3,3,3s3-1.3,3-3H183.7z"/>
		<path class="st1" d="M189.7,5.9c0,1.6,1.3,3,3,3s3-1.3,3-3H189.7z"/>
		<path class="st1" d="M195.6,5.9c0,1.6,1.3,3,3,3s3-1.3,3-3H195.6z"/>
		<path class="st1" d="M201.5,5.9c0,1.6,1.3,3,3,3s3-1.3,3-3H201.5z"/>
		<path class="st1" d="M207.4,5.9c0,1.6,1.3,3,3,3s3-1.3,3-3H207.4z"/>
		<path class="st1" d="M213.4,5.9c0,1.6,1.3,3,3,3s3-1.3,3-3H213.4z"/>
		<path class="st1" d="M219.3,5.9c0,1.6,1.3,3,3,3c1.6,0,3-1.3,3-3H219.3z"/>
		<path class="st1" d="M225.2,5.9c0,1.6,1.3,3,3,3c1.6,0,3-1.3,3-3H225.2z"/>
		<path class="st1" d="M231.2,5.9c0,1.6,1.3,3,3,3c1.6,0,3-1.3,3-3H231.2z"/>
		<path class="st1" d="M237.1,5.9c0,1.6,1.3,3,3,3c1.6,0,3-1.3,3-3H237.1z"/>
		<path class="st1" d="M243,5.9c0,1.6,1.3,3,3,3c1.6,0,3-1.3,3-3H243z"/>
		<g>
			<path class="st1" d="M248.9,5.9c0,1.6,1.3,3,3,3c1.6,0,3-1.3,3-3H248.9z"/>
		</g>
		<path class="st1" d="M254.9,5.9c0,1.6,1.3,3,3,3s3-1.3,3-3H254.9z"/>
		<path class="st1" d="M260.8,5.9c0,1.6,1.3,3,3,3s3-1.3,3-3H260.8z"/>
		<path class="st1" d="M266.7,5.9c0,1.6,1.3,3,3,3s3-1.3,3-3H266.7z"/>
		<path class="st1" d="M272.6,5.9c0,1.6,1.3,3,3,3s3-1.3,3-3H272.6z"/>
		<path class="st1" d="M278.6,5.9c0,1.6,1.3,3,3,3s3-1.3,3-3H278.6z"/>
		<path class="st1" d="M284.5,5.9c0,1.6,1.3,3,3,3s3-1.3,3-3H284.5z"/>
		<path class="st1" d="M290.4,5.9c0,1.6,1.3,3,3,3s3-1.3,3-3H290.4z"/>
		<path class="st1" d="M296.3,5.9c0,1.6,1.3,3,3,3s3-1.3,3-3H296.3z"/>
		<path class="st1" d="M302.3,5.9c0,1.6,1.3,3,3,3s3-1.3,3-3H302.3z"/>
		<path class="st1" d="M308.2,5.9c0,1.6,1.3,3,3,3s3-1.3,3-3H308.2z"/>
		<path class="st1" d="M314.1,5.9c0,1.6,1.3,3,3,3s3-1.3,3-3H314.1z"/>
		<path class="st1" d="M320.1,5.9c0,1.6,1.3,3,3,3s3-1.3,3-3H320.1z"/>
	</g>
	<g class="st3">
		<path class="st1" d="M0,8.9c0,1.6,1.3,3,3,3s3-1.3,3-3H0z"/>
		<path class="st1" d="M5.9,8.9c0,1.6,1.3,3,3,3s3-1.3,3-3H5.9z"/>
		<path class="st1" d="M11.9,8.9c0,1.6,1.3,3,3,3s3-1.3,3-3H11.9z"/>
		<path class="st1" d="M17.8,8.9c0,1.6,1.3,3,3,3c1.6,0,3-1.3,3-3H17.8z"/>
		<path class="st1" d="M23.7,8.9c0,1.6,1.3,3,3,3c1.6,0,3-1.3,3-3H23.7z"/>
		<path class="st1" d="M29.6,8.9c0,1.6,1.3,3,3,3c1.6,0,3-1.3,3-3H29.6z"/>
		<path class="st1" d="M35.6,8.9c0,1.6,1.3,3,3,3c1.6,0,3-1.3,3-3H35.6z"/>
		<path class="st1" d="M41.5,8.9c0,1.6,1.3,3,3,3c1.6,0,3-1.3,3-3H41.5z"/>
		<path class="st1" d="M47.4,8.9c0,1.6,1.3,3,3,3s3-1.3,3-3H47.4z"/>
		<path class="st1" d="M53.3,8.9c0,1.6,1.3,3,3,3s3-1.3,3-3H53.3z"/>
		<path class="st1" d="M59.3,8.9c0,1.6,1.3,3,3,3s3-1.3,3-3H59.3z"/>
		<path class="st1" d="M65.2,8.9c0,1.6,1.3,3,3,3c1.6,0,3-1.3,3-3H65.2z"/>
		<path class="st1" d="M71.1,8.9c0,1.6,1.3,3,3,3c1.6,0,3-1.3,3-3H71.1z"/>
		<path class="st1" d="M77.1,8.9c0,1.6,1.3,3,3,3c1.6,0,3-1.3,3-3H77.1z"/>
		<path class="st1" d="M83,8.9c0,1.6,1.3,3,3,3c1.6,0,3-1.3,3-3H83z"/>
		<path class="st1" d="M88.9,8.9c0,1.6,1.3,3,3,3c1.6,0,3-1.3,3-3H88.9z"/>
		<path class="st1" d="M94.8,8.9c0,1.6,1.3,3,3,3c1.6,0,3-1.3,3-3H94.8z"/>
		<path class="st1" d="M100.8,8.9c0,1.6,1.3,3,3,3c1.6,0,3-1.3,3-3H100.8z"/>
		<path class="st1" d="M106.7,8.9c0,1.6,1.3,3,3,3c1.6,0,3-1.3,3-3H106.7z"/>
		<path class="st1" d="M112.6,8.9c0,1.6,1.3,3,3,3c1.6,0,3-1.3,3-3H112.6z"/>
		<g>
			<path class="st1" d="M118.5,8.9c0,1.6,1.3,3,3,3c1.6,0,3-1.3,3-3H118.5z"/>
		</g>
		<path class="st1" d="M124.5,8.9c0,1.6,1.3,3,3,3c1.6,0,3-1.3,3-3H124.5z"/>
		<path class="st1" d="M130.4,8.9c0,1.6,1.3,3,3,3s3-1.3,3-3H130.4z"/>
		<path class="st1" d="M136.3,8.9c0,1.6,1.3,3,3,3s3-1.3,3-3H136.3z"/>
		<path class="st1" d="M142.2,8.9c0,1.6,1.3,3,3,3s3-1.3,3-3H142.2z"/>
		<path class="st1" d="M148.2,8.9c0,1.6,1.3,3,3,3s3-1.3,3-3H148.2z"/>
		<path class="st1" d="M154.1,8.9c0,1.6,1.3,3,3,3s3-1.3,3-3H154.1z"/>
		<path class="st1" d="M160,8.9c0,1.6,1.3,3,3,3s3-1.3,3-3H160z"/>
		<path class="st1" d="M166,8.9c0,1.6,1.3,3,3,3s3-1.3,3-3H166z"/>
		<path class="st1" d="M171.9,8.9c0,1.6,1.3,3,3,3s3-1.3,3-3H171.9z"/>
		<path class="st1" d="M177.8,8.9c0,1.6,1.3,3,3,3s3-1.3,3-3H177.8z"/>
		<path class="st1" d="M183.7,8.9c0,1.6,1.3,3,3,3s3-1.3,3-3H183.7z"/>
		<path class="st1" d="M189.7,8.9c0,1.6,1.3,3,3,3s3-1.3,3-3H189.7z"/>
		<path class="st1" d="M195.6,8.9c0,1.6,1.3,3,3,3s3-1.3,3-3H195.6z"/>
		<path class="st1" d="M201.5,8.9c0,1.6,1.3,3,3,3s3-1.3,3-3H201.5z"/>
		<path class="st1" d="M207.4,8.9c0,1.6,1.3,3,3,3s3-1.3,3-3H207.4z"/>
		<path class="st1" d="M213.4,8.9c0,1.6,1.3,3,3,3s3-1.3,3-3H213.4z"/>
		<path class="st1" d="M219.3,8.9c0,1.6,1.3,3,3,3c1.6,0,3-1.3,3-3H219.3z"/>
		<path class="st1" d="M225.2,8.9c0,1.6,1.3,3,3,3c1.6,0,3-1.3,3-3H225.2z"/>
		<path class="st1" d="M231.2,8.9c0,1.6,1.3,3,3,3c1.6,0,3-1.3,3-3H231.2z"/>
		<path class="st1" d="M237.1,8.9c0,1.6,1.3,3,3,3c1.6,0,3-1.3,3-3H237.1z"/>
		<path class="st1" d="M243,8.9c0,1.6,1.3,3,3,3c1.6,0,3-1.3,3-3H243z"/>
		<g>
			<path class="st1" d="M248.9,8.9c0,1.6,1.3,3,3,3c1.6,0,3-1.3,3-3H248.9z"/>
		</g>
		<path class="st1" d="M254.9,8.9c0,1.6,1.3,3,3,3s3-1.3,3-3H254.9z"/>
		<path class="st1" d="M260.8,8.9c0,1.6,1.3,3,3,3s3-1.3,3-3H260.8z"/>
		<path class="st1" d="M266.7,8.9c0,1.6,1.3,3,3,3s3-1.3,3-3H266.7z"/>
		<path class="st1" d="M272.6,8.9c0,1.6,1.3,3,3,3s3-1.3,3-3H272.6z"/>
		<path class="st1" d="M278.6,8.9c0,1.6,1.3,3,3,3s3-1.3,3-3H278.6z"/>
		<path class="st1" d="M284.5,8.9c0,1.6,1.3,3,3,3s3-1.3,3-3H284.5z"/>
		<path class="st1" d="M290.4,8.9c0,1.6,1.3,3,3,3s3-1.3,3-3H290.4z"/>
		<path class="st1" d="M296.3,8.9c0,1.6,1.3,3,3,3s3-1.3,3-3H296.3z"/>
		<path class="st1" d="M302.3,8.9c0,1.6,1.3,3,3,3s3-1.3,3-3H302.3z"/>
		<path class="st1" d="M308.2,8.9c0,1.6,1.3,3,3,3s3-1.3,3-3H308.2z"/>
		<path class="st1" d="M314.1,8.9c0,1.6,1.3,3,3,3s3-1.3,3-3H314.1z"/>
		<path class="st1" d="M320.1,8.9c0,1.6,1.3,3,3,3s3-1.3,3-3H320.1z"/>
	</g>
	<g class="st4">
		<path class="st1" d="M0,11.9c0,1.6,1.3,3,3,3s3-1.3,3-3H0z"/>
		<path class="st1" d="M5.9,11.9c0,1.6,1.3,3,3,3s3-1.3,3-3H5.9z"/>
		<path class="st1" d="M11.9,11.9c0,1.6,1.3,3,3,3s3-1.3,3-3H11.9z"/>
		<path class="st1" d="M17.8,11.9c0,1.6,1.3,3,3,3c1.6,0,3-1.3,3-3H17.8z"/>
		<path class="st1" d="M23.7,11.9c0,1.6,1.3,3,3,3c1.6,0,3-1.3,3-3H23.7z"/>
		<path class="st1" d="M29.6,11.9c0,1.6,1.3,3,3,3c1.6,0,3-1.3,3-3H29.6z"/>
		<path class="st1" d="M35.6,11.9c0,1.6,1.3,3,3,3c1.6,0,3-1.3,3-3H35.6z"/>
		<path class="st1" d="M41.5,11.9c0,1.6,1.3,3,3,3c1.6,0,3-1.3,3-3H41.5z"/>
		<path class="st1" d="M47.4,11.9c0,1.6,1.3,3,3,3s3-1.3,3-3H47.4z"/>
		<path class="st1" d="M53.3,11.9c0,1.6,1.3,3,3,3s3-1.3,3-3H53.3z"/>
		<path class="st1" d="M59.3,11.9c0,1.6,1.3,3,3,3s3-1.3,3-3H59.3z"/>
		<path class="st1" d="M65.2,11.9c0,1.6,1.3,3,3,3c1.6,0,3-1.3,3-3H65.2z"/>
		<path class="st1" d="M71.1,11.9c0,1.6,1.3,3,3,3c1.6,0,3-1.3,3-3H71.1z"/>
		<path class="st1" d="M77.1,11.9c0,1.6,1.3,3,3,3c1.6,0,3-1.3,3-3H77.1z"/>
		<path class="st1" d="M83,11.9c0,1.6,1.3,3,3,3c1.6,0,3-1.3,3-3H83z"/>
		<path class="st1" d="M88.9,11.9c0,1.6,1.3,3,3,3c1.6,0,3-1.3,3-3H88.9z"/>
		<path class="st1" d="M94.8,11.9c0,1.6,1.3,3,3,3c1.6,0,3-1.3,3-3H94.8z"/>
		<path class="st1" d="M100.8,11.9c0,1.6,1.3,3,3,3c1.6,0,3-1.3,3-3H100.8z"/>
		<path class="st1" d="M106.7,11.9c0,1.6,1.3,3,3,3c1.6,0,3-1.3,3-3H106.7z"/>
		<path class="st1" d="M112.6,11.9c0,1.6,1.3,3,3,3c1.6,0,3-1.3,3-3H112.6z"/>
		<g>
			<path class="st1" d="M118.5,11.9c0,1.6,1.3,3,3,3c1.6,0,3-1.3,3-3H118.5z"/>
		</g>
		<path class="st1" d="M124.5,11.9c0,1.6,1.3,3,3,3c1.6,0,3-1.3,3-3H124.5z"/>
		<path class="st1" d="M130.4,11.9c0,1.6,1.3,3,3,3s3-1.3,3-3H130.4z"/>
		<path class="st1" d="M136.3,11.9c0,1.6,1.3,3,3,3s3-1.3,3-3H136.3z"/>
		<path class="st1" d="M142.2,11.9c0,1.6,1.3,3,3,3s3-1.3,3-3H142.2z"/>
		<path class="st1" d="M148.2,11.9c0,1.6,1.3,3,3,3s3-1.3,3-3H148.2z"/>
		<path class="st1" d="M154.1,11.9c0,1.6,1.3,3,3,3s3-1.3,3-3H154.1z"/>
		<path class="st1" d="M160,11.9c0,1.6,1.3,3,3,3s3-1.3,3-3H160z"/>
		<path class="st1" d="M166,11.9c0,1.6,1.3,3,3,3s3-1.3,3-3H166z"/>
		<path class="st1" d="M171.9,11.9c0,1.6,1.3,3,3,3s3-1.3,3-3H171.9z"/>
		<path class="st1" d="M177.8,11.9c0,1.6,1.3,3,3,3s3-1.3,3-3H177.8z"/>
		<path class="st1" d="M183.7,11.9c0,1.6,1.3,3,3,3s3-1.3,3-3H183.7z"/>
		<path class="st1" d="M189.7,11.9c0,1.6,1.3,3,3,3s3-1.3,3-3H189.7z"/>
		<path class="st1" d="M195.6,11.9c0,1.6,1.3,3,3,3s3-1.3,3-3H195.6z"/>
		<path class="st1" d="M201.5,11.9c0,1.6,1.3,3,3,3s3-1.3,3-3H201.5z"/>
		<path class="st1" d="M207.4,11.9c0,1.6,1.3,3,3,3s3-1.3,3-3H207.4z"/>
		<path class="st1" d="M213.4,11.9c0,1.6,1.3,3,3,3s3-1.3,3-3H213.4z"/>
		<path class="st1" d="M219.3,11.9c0,1.6,1.3,3,3,3c1.6,0,3-1.3,3-3H219.3z"/>
		<path class="st1" d="M225.2,11.9c0,1.6,1.3,3,3,3c1.6,0,3-1.3,3-3H225.2z"/>
		<path class="st1" d="M231.2,11.9c0,1.6,1.3,3,3,3c1.6,0,3-1.3,3-3H231.2z"/>
		<path class="st1" d="M237.1,11.9c0,1.6,1.3,3,3,3c1.6,0,3-1.3,3-3H237.1z"/>
		<path class="st1" d="M243,11.9c0,1.6,1.3,3,3,3c1.6,0,3-1.3,3-3H243z"/>
		<g>
			<path class="st1" d="M248.9,11.9c0,1.6,1.3,3,3,3c1.6,0,3-1.3,3-3H248.9z"/>
		</g>
		<path class="st1" d="M254.9,11.9c0,1.6,1.3,3,3,3s3-1.3,3-3H254.9z"/>
		<path class="st1" d="M260.8,11.9c0,1.6,1.3,3,3,3s3-1.3,3-3H260.8z"/>
		<path class="st1" d="M266.7,11.9c0,1.6,1.3,3,3,3s3-1.3,3-3H266.7z"/>
		<path class="st1" d="M272.6,11.9c0,1.6,1.3,3,3,3s3-1.3,3-3H272.6z"/>
		<path class="st1" d="M278.6,11.9c0,1.6,1.3,3,3,3s3-1.3,3-3H278.6z"/>
		<path class="st1" d="M284.5,11.9c0,1.6,1.3,3,3,3s3-1.3,3-3H284.5z"/>
		<path class="st1" d="M290.4,11.9c0,1.6,1.3,3,3,3s3-1.3,3-3H290.4z"/>
		<path class="st1" d="M296.3,11.9c0,1.6,1.3,3,3,3s3-1.3,3-3H296.3z"/>
		<path class="st1" d="M302.3,11.9c0,1.6,1.3,3,3,3s3-1.3,3-3H302.3z"/>
		<path class="st1" d="M308.2,11.9c0,1.6,1.3,3,3,3s3-1.3,3-3H308.2z"/>
		<path class="st1" d="M314.1,11.9c0,1.6,1.3,3,3,3s3-1.3,3-3H314.1z"/>
		<path class="st1" d="M320.1,11.9c0,1.6,1.3,3,3,3s3-1.3,3-3H320.1z"/>
	</g>
	<g class="st5">
		<path class="st1" d="M0,14.8c0,1.6,1.3,3,3,3s3-1.3,3-3H0z"/>
		<path class="st1" d="M5.9,14.8c0,1.6,1.3,3,3,3s3-1.3,3-3H5.9z"/>
		<path class="st1" d="M11.9,14.8c0,1.6,1.3,3,3,3s3-1.3,3-3H11.9z"/>
		<path class="st1" d="M17.8,14.8c0,1.6,1.3,3,3,3c1.6,0,3-1.3,3-3H17.8z"/>
		<path class="st1" d="M23.7,14.8c0,1.6,1.3,3,3,3c1.6,0,3-1.3,3-3H23.7z"/>
		<path class="st1" d="M29.6,14.8c0,1.6,1.3,3,3,3c1.6,0,3-1.3,3-3H29.6z"/>
		<path class="st1" d="M35.6,14.8c0,1.6,1.3,3,3,3c1.6,0,3-1.3,3-3H35.6z"/>
		<path class="st1" d="M41.5,14.8c0,1.6,1.3,3,3,3c1.6,0,3-1.3,3-3H41.5z"/>
		<path class="st1" d="M47.4,14.8c0,1.6,1.3,3,3,3s3-1.3,3-3H47.4z"/>
		<path class="st1" d="M53.3,14.8c0,1.6,1.3,3,3,3s3-1.3,3-3H53.3z"/>
		<path class="st1" d="M59.3,14.8c0,1.6,1.3,3,3,3s3-1.3,3-3H59.3z"/>
		<path class="st1" d="M65.2,14.8c0,1.6,1.3,3,3,3c1.6,0,3-1.3,3-3H65.2z"/>
		<path class="st1" d="M71.1,14.8c0,1.6,1.3,3,3,3c1.6,0,3-1.3,3-3H71.1z"/>
		<path class="st1" d="M77.1,14.8c0,1.6,1.3,3,3,3c1.6,0,3-1.3,3-3H77.1z"/>
		<path class="st1" d="M83,14.8c0,1.6,1.3,3,3,3c1.6,0,3-1.3,3-3H83z"/>
		<path class="st1" d="M88.9,14.8c0,1.6,1.3,3,3,3c1.6,0,3-1.3,3-3H88.9z"/>
		<path class="st1" d="M94.8,14.8c0,1.6,1.3,3,3,3c1.6,0,3-1.3,3-3H94.8z"/>
		<path class="st1" d="M100.8,14.8c0,1.6,1.3,3,3,3c1.6,0,3-1.3,3-3H100.8z"/>
		<path class="st1" d="M106.7,14.8c0,1.6,1.3,3,3,3c1.6,0,3-1.3,3-3H106.7z"/>
		<path class="st1" d="M112.6,14.8c0,1.6,1.3,3,3,3c1.6,0,3-1.3,3-3H112.6z"/>
		<g>
			<path class="st1" d="M118.5,14.8c0,1.6,1.3,3,3,3c1.6,0,3-1.3,3-3H118.5z"/>
		</g>
		<path class="st1" d="M124.5,14.8c0,1.6,1.3,3,3,3c1.6,0,3-1.3,3-3H124.5z"/>
		<path class="st1" d="M130.4,14.8c0,1.6,1.3,3,3,3s3-1.3,3-3H130.4z"/>
		<path class="st1" d="M136.3,14.8c0,1.6,1.3,3,3,3s3-1.3,3-3H136.3z"/>
		<path class="st1" d="M142.2,14.8c0,1.6,1.3,3,3,3s3-1.3,3-3H142.2z"/>
		<path class="st1" d="M148.2,14.8c0,1.6,1.3,3,3,3s3-1.3,3-3H148.2z"/>
		<path class="st1" d="M154.1,14.8c0,1.6,1.3,3,3,3s3-1.3,3-3H154.1z"/>
		<path class="st1" d="M160,14.8c0,1.6,1.3,3,3,3s3-1.3,3-3H160z"/>
		<path class="st1" d="M166,14.8c0,1.6,1.3,3,3,3s3-1.3,3-3H166z"/>
		<path class="st1" d="M171.9,14.8c0,1.6,1.3,3,3,3s3-1.3,3-3H171.9z"/>
		<path class="st1" d="M177.8,14.8c0,1.6,1.3,3,3,3s3-1.3,3-3H177.8z"/>
		<path class="st1" d="M183.7,14.8c0,1.6,1.3,3,3,3s3-1.3,3-3H183.7z"/>
		<path class="st1" d="M189.7,14.8c0,1.6,1.3,3,3,3s3-1.3,3-3H189.7z"/>
		<path class="st1" d="M195.6,14.8c0,1.6,1.3,3,3,3s3-1.3,3-3H195.6z"/>
		<path class="st1" d="M201.5,14.8c0,1.6,1.3,3,3,3s3-1.3,3-3H201.5z"/>
		<path class="st1" d="M207.4,14.8c0,1.6,1.3,3,3,3s3-1.3,3-3H207.4z"/>
		<path class="st1" d="M213.4,14.8c0,1.6,1.3,3,3,3s3-1.3,3-3H213.4z"/>
		<path class="st1" d="M219.3,14.8c0,1.6,1.3,3,3,3c1.6,0,3-1.3,3-3H219.3z"/>
		<path class="st1" d="M225.2,14.8c0,1.6,1.3,3,3,3c1.6,0,3-1.3,3-3H225.2z"/>
		<path class="st1" d="M231.2,14.8c0,1.6,1.3,3,3,3c1.6,0,3-1.3,3-3H231.2z"/>
		<path class="st1" d="M237.1,14.8c0,1.6,1.3,3,3,3c1.6,0,3-1.3,3-3H237.1z"/>
		<path class="st1" d="M243,14.8c0,1.6,1.3,3,3,3c1.6,0,3-1.3,3-3H243z"/>
		<g>
			<path class="st1" d="M248.9,14.8c0,1.6,1.3,3,3,3c1.6,0,3-1.3,3-3H248.9z"/>
		</g>
		<path class="st1" d="M254.9,14.8c0,1.6,1.3,3,3,3s3-1.3,3-3H254.9z"/>
		<path class="st1" d="M260.8,14.8c0,1.6,1.3,3,3,3s3-1.3,3-3H260.8z"/>
		<path class="st1" d="M266.7,14.8c0,1.6,1.3,3,3,3s3-1.3,3-3H266.7z"/>
		<path class="st1" d="M272.6,14.8c0,1.6,1.3,3,3,3s3-1.3,3-3H272.6z"/>
		<path class="st1" d="M278.6,14.8c0,1.6,1.3,3,3,3s3-1.3,3-3H278.6z"/>
		<path class="st1" d="M284.5,14.8c0,1.6,1.3,3,3,3s3-1.3,3-3H284.5z"/>
		<path class="st1" d="M290.4,14.8c0,1.6,1.3,3,3,3s3-1.3,3-3H290.4z"/>
		<path class="st1" d="M296.3,14.8c0,1.6,1.3,3,3,3s3-1.3,3-3H296.3z"/>
		<path class="st1" d="M302.3,14.8c0,1.6,1.3,3,3,3s3-1.3,3-3H302.3z"/>
		<path class="st1" d="M308.2,14.8c0,1.6,1.3,3,3,3s3-1.3,3-3H308.2z"/>
		<path class="st1" d="M314.1,14.8c0,1.6,1.3,3,3,3s3-1.3,3-3H314.1z"/>
		<path class="st1" d="M320.1,14.8c0,1.6,1.3,3,3,3s3-1.3,3-3H320.1z"/>
	</g>
	<g class="st6">
		<path class="st1" d="M0,17.8c0,1.6,1.3,3,3,3s3-1.3,3-3H0z"/>
		<path class="st1" d="M5.9,17.8c0,1.6,1.3,3,3,3s3-1.3,3-3H5.9z"/>
		<path class="st1" d="M11.9,17.8c0,1.6,1.3,3,3,3s3-1.3,3-3H11.9z"/>
		<path class="st1" d="M17.8,17.8c0,1.6,1.3,3,3,3c1.6,0,3-1.3,3-3H17.8z"/>
		<path class="st1" d="M23.7,17.8c0,1.6,1.3,3,3,3c1.6,0,3-1.3,3-3H23.7z"/>
		<path class="st1" d="M29.6,17.8c0,1.6,1.3,3,3,3c1.6,0,3-1.3,3-3H29.6z"/>
		<path class="st1" d="M35.6,17.8c0,1.6,1.3,3,3,3c1.6,0,3-1.3,3-3H35.6z"/>
		<path class="st1" d="M41.5,17.8c0,1.6,1.3,3,3,3c1.6,0,3-1.3,3-3H41.5z"/>
		<path class="st1" d="M47.4,17.8c0,1.6,1.3,3,3,3s3-1.3,3-3H47.4z"/>
		<path class="st1" d="M53.3,17.8c0,1.6,1.3,3,3,3s3-1.3,3-3H53.3z"/>
		<path class="st1" d="M59.3,17.8c0,1.6,1.3,3,3,3s3-1.3,3-3H59.3z"/>
		<path class="st1" d="M65.2,17.8c0,1.6,1.3,3,3,3c1.6,0,3-1.3,3-3H65.2z"/>
		<path class="st1" d="M71.1,17.8c0,1.6,1.3,3,3,3c1.6,0,3-1.3,3-3H71.1z"/>
		<path class="st1" d="M77.1,17.8c0,1.6,1.3,3,3,3c1.6,0,3-1.3,3-3H77.1z"/>
		<path class="st1" d="M83,17.8c0,1.6,1.3,3,3,3c1.6,0,3-1.3,3-3H83z"/>
		<path class="st1" d="M88.9,17.8c0,1.6,1.3,3,3,3c1.6,0,3-1.3,3-3H88.9z"/>
		<path class="st1" d="M94.8,17.8c0,1.6,1.3,3,3,3c1.6,0,3-1.3,3-3H94.8z"/>
		<path class="st1" d="M100.8,17.8c0,1.6,1.3,3,3,3c1.6,0,3-1.3,3-3H100.8z"/>
		<path class="st1" d="M106.7,17.8c0,1.6,1.3,3,3,3c1.6,0,3-1.3,3-3H106.7z"/>
		<path class="st1" d="M112.6,17.8c0,1.6,1.3,3,3,3c1.6,0,3-1.3,3-3H112.6z"/>
		<g>
			<path class="st1" d="M118.5,17.8c0,1.6,1.3,3,3,3c1.6,0,3-1.3,3-3H118.5z"/>
		</g>
		<path class="st1" d="M124.5,17.8c0,1.6,1.3,3,3,3c1.6,0,3-1.3,3-3H124.5z"/>
		<path class="st1" d="M130.4,17.8c0,1.6,1.3,3,3,3s3-1.3,3-3H130.4z"/>
		<path class="st1" d="M136.3,17.8c0,1.6,1.3,3,3,3s3-1.3,3-3H136.3z"/>
		<path class="st1" d="M142.2,17.8c0,1.6,1.3,3,3,3s3-1.3,3-3H142.2z"/>
		<path class="st1" d="M148.2,17.8c0,1.6,1.3,3,3,3s3-1.3,3-3H148.2z"/>
		<path class="st1" d="M154.1,17.8c0,1.6,1.3,3,3,3s3-1.3,3-3H154.1z"/>
		<path class="st1" d="M160,17.8c0,1.6,1.3,3,3,3s3-1.3,3-3H160z"/>
		<path class="st1" d="M166,17.8c0,1.6,1.3,3,3,3s3-1.3,3-3H166z"/>
		<path class="st1" d="M171.9,17.8c0,1.6,1.3,3,3,3s3-1.3,3-3H171.9z"/>
		<path class="st1" d="M177.8,17.8c0,1.6,1.3,3,3,3s3-1.3,3-3H177.8z"/>
		<path class="st1" d="M183.7,17.8c0,1.6,1.3,3,3,3s3-1.3,3-3H183.7z"/>
		<path class="st1" d="M189.7,17.8c0,1.6,1.3,3,3,3s3-1.3,3-3H189.7z"/>
		<path class="st1" d="M195.6,17.8c0,1.6,1.3,3,3,3s3-1.3,3-3H195.6z"/>
		<path class="st1" d="M201.5,17.8c0,1.6,1.3,3,3,3s3-1.3,3-3H201.5z"/>
		<path class="st1" d="M207.4,17.8c0,1.6,1.3,3,3,3s3-1.3,3-3H207.4z"/>
		<path class="st1" d="M213.4,17.8c0,1.6,1.3,3,3,3s3-1.3,3-3H213.4z"/>
		<path class="st1" d="M219.3,17.8c0,1.6,1.3,3,3,3c1.6,0,3-1.3,3-3H219.3z"/>
		<path class="st1" d="M225.2,17.8c0,1.6,1.3,3,3,3c1.6,0,3-1.3,3-3H225.2z"/>
		<path class="st1" d="M231.2,17.8c0,1.6,1.3,3,3,3c1.6,0,3-1.3,3-3H231.2z"/>
		<path class="st1" d="M237.1,17.8c0,1.6,1.3,3,3,3c1.6,0,3-1.3,3-3H237.1z"/>
		<path class="st1" d="M243,17.8c0,1.6,1.3,3,3,3c1.6,0,3-1.3,3-3H243z"/>
		<g>
			<path class="st1" d="M248.9,17.8c0,1.6,1.3,3,3,3c1.6,0,3-1.3,3-3H248.9z"/>
		</g>
		<path class="st1" d="M254.9,17.8c0,1.6,1.3,3,3,3s3-1.3,3-3H254.9z"/>
		<path class="st1" d="M260.8,17.8c0,1.6,1.3,3,3,3s3-1.3,3-3H260.8z"/>
		<path class="st1" d="M266.7,17.8c0,1.6,1.3,3,3,3s3-1.3,3-3H266.7z"/>
		<path class="st1" d="M272.6,17.8c0,1.6,1.3,3,3,3s3-1.3,3-3H272.6z"/>
		<path class="st1" d="M278.6,17.8c0,1.6,1.3,3,3,3s3-1.3,3-3H278.6z"/>
		<path class="st1" d="M284.5,17.8c0,1.6,1.3,3,3,3s3-1.3,3-3H284.5z"/>
		<path class="st1" d="M290.4,17.8c0,1.6,1.3,3,3,3s3-1.3,3-3H290.4z"/>
		<path class="st1" d="M296.3,17.8c0,1.6,1.3,3,3,3s3-1.3,3-3H296.3z"/>
		<path class="st1" d="M302.3,17.8c0,1.6,1.3,3,3,3s3-1.3,3-3H302.3z"/>
		<path class="st1" d="M308.2,17.8c0,1.6,1.3,3,3,3s3-1.3,3-3H308.2z"/>
		<path class="st1" d="M314.1,17.8c0,1.6,1.3,3,3,3s3-1.3,3-3H314.1z"/>
		<path class="st1" d="M320.1,17.8c0,1.6,1.3,3,3,3s3-1.3,3-3H320.1z"/>
	</g>
	<g class="st7">
		<path class="st1" d="M0,20.7c0,1.6,1.3,3,3,3s3-1.3,3-3H0z"/>
		<path class="st1" d="M5.9,20.7c0,1.6,1.3,3,3,3s3-1.3,3-3H5.9z"/>
		<path class="st1" d="M11.9,20.7c0,1.6,1.3,3,3,3s3-1.3,3-3H11.9z"/>
		<path class="st1" d="M17.8,20.7c0,1.6,1.3,3,3,3c1.6,0,3-1.3,3-3H17.8z"/>
		<path class="st1" d="M23.7,20.7c0,1.6,1.3,3,3,3c1.6,0,3-1.3,3-3H23.7z"/>
		<path class="st1" d="M29.6,20.7c0,1.6,1.3,3,3,3c1.6,0,3-1.3,3-3H29.6z"/>
		<path class="st1" d="M35.6,20.7c0,1.6,1.3,3,3,3c1.6,0,3-1.3,3-3H35.6z"/>
		<path class="st1" d="M41.5,20.7c0,1.6,1.3,3,3,3c1.6,0,3-1.3,3-3H41.5z"/>
		<path class="st1" d="M47.4,20.7c0,1.6,1.3,3,3,3s3-1.3,3-3H47.4z"/>
		<path class="st1" d="M53.3,20.7c0,1.6,1.3,3,3,3s3-1.3,3-3H53.3z"/>
		<path class="st1" d="M59.3,20.7c0,1.6,1.3,3,3,3s3-1.3,3-3H59.3z"/>
		<path class="st1" d="M65.2,20.7c0,1.6,1.3,3,3,3c1.6,0,3-1.3,3-3H65.2z"/>
		<path class="st1" d="M71.1,20.7c0,1.6,1.3,3,3,3c1.6,0,3-1.3,3-3H71.1z"/>
		<path class="st1" d="M77.1,20.7c0,1.6,1.3,3,3,3c1.6,0,3-1.3,3-3H77.1z"/>
		<path class="st1" d="M83,20.7c0,1.6,1.3,3,3,3c1.6,0,3-1.3,3-3H83z"/>
		<path class="st1" d="M88.9,20.7c0,1.6,1.3,3,3,3c1.6,0,3-1.3,3-3H88.9z"/>
		<path class="st1" d="M94.8,20.7c0,1.6,1.3,3,3,3c1.6,0,3-1.3,3-3H94.8z"/>
		<path class="st1" d="M100.8,20.7c0,1.6,1.3,3,3,3c1.6,0,3-1.3,3-3H100.8z"/>
		<path class="st1" d="M106.7,20.7c0,1.6,1.3,3,3,3c1.6,0,3-1.3,3-3H106.7z"/>
		<path class="st1" d="M112.6,20.7c0,1.6,1.3,3,3,3c1.6,0,3-1.3,3-3H112.6z"/>
		<g>
			<path class="st1" d="M118.5,20.7c0,1.6,1.3,3,3,3c1.6,0,3-1.3,3-3H118.5z"/>
		</g>
		<path class="st1" d="M124.5,20.7c0,1.6,1.3,3,3,3c1.6,0,3-1.3,3-3H124.5z"/>
		<path class="st1" d="M130.4,20.7c0,1.6,1.3,3,3,3s3-1.3,3-3H130.4z"/>
		<path class="st1" d="M136.3,20.7c0,1.6,1.3,3,3,3s3-1.3,3-3H136.3z"/>
		<path class="st1" d="M142.2,20.7c0,1.6,1.3,3,3,3s3-1.3,3-3H142.2z"/>
		<path class="st1" d="M148.2,20.7c0,1.6,1.3,3,3,3s3-1.3,3-3H148.2z"/>
		<path class="st1" d="M154.1,20.7c0,1.6,1.3,3,3,3s3-1.3,3-3H154.1z"/>
		<path class="st1" d="M160,20.7c0,1.6,1.3,3,3,3s3-1.3,3-3H160z"/>
		<path class="st1" d="M166,20.7c0,1.6,1.3,3,3,3s3-1.3,3-3H166z"/>
		<path class="st1" d="M171.9,20.7c0,1.6,1.3,3,3,3s3-1.3,3-3H171.9z"/>
		<path class="st1" d="M177.8,20.7c0,1.6,1.3,3,3,3s3-1.3,3-3H177.8z"/>
		<path class="st1" d="M183.7,20.7c0,1.6,1.3,3,3,3s3-1.3,3-3H183.7z"/>
		<path class="st1" d="M189.7,20.7c0,1.6,1.3,3,3,3s3-1.3,3-3H189.7z"/>
		<path class="st1" d="M195.6,20.7c0,1.6,1.3,3,3,3s3-1.3,3-3H195.6z"/>
		<path class="st1" d="M201.5,20.7c0,1.6,1.3,3,3,3s3-1.3,3-3H201.5z"/>
		<path class="st1" d="M207.4,20.7c0,1.6,1.3,3,3,3s3-1.3,3-3H207.4z"/>
		<path class="st1" d="M213.4,20.7c0,1.6,1.3,3,3,3s3-1.3,3-3H213.4z"/>
		<path class="st1" d="M219.3,20.7c0,1.6,1.3,3,3,3c1.6,0,3-1.3,3-3H219.3z"/>
		<path class="st1" d="M225.2,20.7c0,1.6,1.3,3,3,3c1.6,0,3-1.3,3-3H225.2z"/>
		<path class="st1" d="M231.2,20.7c0,1.6,1.3,3,3,3c1.6,0,3-1.3,3-3H231.2z"/>
		<path class="st1" d="M237.1,20.7c0,1.6,1.3,3,3,3c1.6,0,3-1.3,3-3H237.1z"/>
		<path class="st1" d="M243,20.7c0,1.6,1.3,3,3,3c1.6,0,3-1.3,3-3H243z"/>
		<g>
			<path class="st1" d="M248.9,20.7c0,1.6,1.3,3,3,3c1.6,0,3-1.3,3-3H248.9z"/>
		</g>
		<path class="st1" d="M254.9,20.7c0,1.6,1.3,3,3,3s3-1.3,3-3H254.9z"/>
		<path class="st1" d="M260.8,20.7c0,1.6,1.3,3,3,3s3-1.3,3-3H260.8z"/>
		<path class="st1" d="M266.7,20.7c0,1.6,1.3,3,3,3s3-1.3,3-3H266.7z"/>
		<path class="st1" d="M272.6,20.7c0,1.6,1.3,3,3,3s3-1.3,3-3H272.6z"/>
		<path class="st1" d="M278.6,20.7c0,1.6,1.3,3,3,3s3-1.3,3-3H278.6z"/>
		<path class="st1" d="M284.5,20.7c0,1.6,1.3,3,3,3s3-1.3,3-3H284.5z"/>
		<path class="st1" d="M290.4,20.7c0,1.6,1.3,3,3,3s3-1.3,3-3H290.4z"/>
		<path class="st1" d="M296.3,20.7c0,1.6,1.3,3,3,3s3-1.3,3-3H296.3z"/>
		<path class="st1" d="M302.3,20.7c0,1.6,1.3,3,3,3s3-1.3,3-3H302.3z"/>
		<path class="st1" d="M308.2,20.7c0,1.6,1.3,3,3,3s3-1.3,3-3H308.2z"/>
		<path class="st1" d="M314.1,20.7c0,1.6,1.3,3,3,3s3-1.3,3-3H314.1z"/>
		<path class="st1" d="M320.1,20.7c0,1.6,1.3,3,3,3s3-1.3,3-3H320.1z"/>
	</g>
</g>
</svg>
